<svg xmlns="http://www.w3.org/2000/svg" viewBox="0 0 512 512">
  <rect width="512" height="512" rx="108" fill="#dc2626"/>
  <rect x="64" y="64" width="384" height="384" rx="84" fill="#ef4444"/>
  <path d="M138 332c34 26 72 39 115 39 40 0 72-9 96-27 23-18 35-42 35-71 0-28-10-50-31-66-20-16-52-29-94-38-26-6-45-11-56-17-11-5-16-13-16-23 0-11 6-20 17-27 12-7 28-10 48-10 34 0 66 10 97 29l27-66c-33-21-73-32-119-32-39 0-70 10-93 29-23 20-35 45-35 76 0 28 10 50 31 66 21 17 53 30 97 40 25 5 43 11 53 17 10 6 15 14 15 24 0 21-22 31-65 31-36 0-70-12-102-35l-27 65z" fill="#fff"/>
</svg>
